<?xml version="1.0" encoding="utf-8"?>
<!-- Generator: Adobe Illustrator 24.1.0, SVG Export Plug-In . SVG Version: 6.00 Build 0)  -->
<svg version="1.1" id="Layer_1" xmlns="http://www.w3.org/2000/svg" xmlns:xlink="http://www.w3.org/1999/xlink" x="0px" y="0px"
	 viewBox="0 0 1125 1125" style="enable-background:new 0 0 1125 1125;" xml:space="preserve">
<g>
	<path d="M564.21,1052.04C295.42,1052.02,77.3,832.73,77.36,562.56C77.41,295.08,297.47,77.19,567.38,77.36
		c267.27,0.16,484.8,220.34,484.66,490.57C1051.91,833.49,831.67,1052.06,564.21,1052.04z M564.45,1011.19
		c245.6,0.06,446.36-199.87,446.74-444.87c0.38-246.95-199.51-447.93-445.7-448.12c-246.23-0.19-447.08,199.83-447.29,445.43
		C117.99,810.45,318.09,1011.13,564.45,1011.19z"/>
	<path d="M817.64,869.85c0,8.16,0.13,13.65-0.03,19.14c-0.38,13.06-6.83,20.87-20.22,20.8c-13.4-0.07-19.6-7.85-19.87-21.03
		c-1.14-56.74-9.33-112.22-30.57-165.23c-14.29-35.66-32.92-68.61-61.85-94.71c-22.02-19.87-47.38-31.05-77.69-30.33
		c-25.62,0.61-51.34,1.34-76.88-0.14c-45.31-2.63-79.09,17.42-106,51.35c-41.82,52.73-60.23,114.7-68.47,180.22
		c-2.55,20.28-2.81,40.85-4.29,61.27c-0.84,11.62-7.31,18.18-18.94,18.64c-12.13,0.48-20.78-5.85-20.71-17.8
		c0.61-102.76,21.29-199.42,91.33-279.26c32.43-36.97,73.31-57.25,124.02-54.78c21.92,1.07,44.03,1.49,65.89-0.07
		c66.09-4.71,113.89,25.89,151,76.94c43.62,59.99,62.96,128.81,70.71,201.52C816.35,848.38,816.94,860.45,817.64,869.85z"/>
	<path d="M713.66,383.22c3.11,63.94-20.41,115.33-78.02,147.71c-96.69,54.35-219.48-17.98-219.96-128.82
		c-0.15-35.53-1.22-70.85,15.77-104.02c31.4-61.31,100.55-93.81,168.04-77.93c66.4,15.63,114.1,76.04,114.16,144.59
		C713.66,370.62,713.66,376.48,713.66,383.22z M456.58,379.02c0,9.27-0.01,15.12,0,20.98c0.15,54.81,42.04,102.37,94.79,107.63
		c57.53,5.74,108.27-29.88,118.86-85.57c3.57-18.79,2.5-38.59,2.48-57.92c-0.1-81.2-88.29-133.51-159.26-94.1
		C469.59,294.4,453,333.56,456.58,379.02z"/>
</g>
</svg>
