<?xml version="1.0" encoding="utf-8"?>
<!-- Generator: Adobe Illustrator 24.1.0, SVG Export Plug-In . SVG Version: 6.00 Build 0)  -->
<svg version="1.1" id="Layer_1" xmlns="http://www.w3.org/2000/svg" xmlns:xlink="http://www.w3.org/1999/xlink" x="0px" y="0px"
	 viewBox="0 0 1125 1125" style="enable-background:new 0 0 1125 1125;" xml:space="preserve">
<style type="text/css">
	.st0{fill:#2787F5;}
	.st1{fill:#FFFFFF;}
</style>
<g>
	<path class="st0" d="M961.75,166.22C855.5,59.97,714.24,1.46,563.98,1.46c-150.25,0-291.52,58.51-397.76,164.76
		C59.97,272.47,1.46,413.73,1.46,563.98c0,150.26,58.51,291.52,164.76,397.76c104.66,104.66,243.29,162.95,391.03,164.68
		c2.19,0.03,4.39,0.08,6.58,0.08c0.03,0,0.05,0,0.08,0c0.03,0,0.05,0,0.08,0c150.26,0,291.52-58.51,397.76-164.76
		c106.25-106.25,164.76-247.51,164.76-397.76C1126.51,413.73,1067.99,272.47,961.75,166.22z"/>
	<circle class="st1" cx="565.49" cy="565.62" r="490.5"/>
</g>
<g>
	<path class="st0" d="M829.59,505.39h-15.94l-0.55-120.1c0-138.42-112.62-251.04-251.04-251.04S311.02,246.87,311.02,385.41
		l0.55,119.98h-15.7c-19.86,0-36.03,16.16-36.03,36.03v350.55c0,19.86,16.16,36.03,36.03,36.03h533.72
		c19.86,0,36.03-16.16,36.03-36.03V541.42C865.62,521.56,849.46,505.39,829.59,505.39z M362.48,385.29
		c0-110.05,89.53-199.58,199.58-199.58s199.58,89.53,199.58,199.69l0.55,119.98H363.04L362.48,385.29z M814.15,876.54H311.31V556.86
		h502.84V876.54z"/>
	<path class="st0" d="M713.01,789.23c14.21,0,25.73-11.52,25.73-25.73v-92.87c0-14.21-11.52-25.73-25.73-25.73
		s-25.73,11.52-25.73,25.73v92.87C687.28,777.71,698.8,789.23,713.01,789.23z"/>
</g>
</svg>
