<?xml version="1.0" encoding="utf-8"?>
<!-- Generator: Adobe Illustrator 24.1.0, SVG Export Plug-In . SVG Version: 6.00 Build 0)  -->
<svg version="1.1" id="Layer_1" xmlns="http://www.w3.org/2000/svg" xmlns:xlink="http://www.w3.org/1999/xlink" x="0px" y="0px"
	 viewBox="0 0 1125 1125" style="enable-background:new 0 0 1125 1125;" xml:space="preserve">
<style type="text/css">
	.st0{fill:#FFFFFF;}
	.st1{fill:#2787F5;}
</style>
<g>
	<g>
		<circle class="st0" cx="562.99" cy="562" r="490.5"/>
		<path class="st1" d="M960.24,164.59C854,58.34,712.73-0.17,562.48-0.17c-150.25,0-291.52,58.51-397.76,164.76
			C58.47,270.83-0.04,412.1-0.04,562.35c0,150.26,58.51,291.52,164.76,397.76c104.66,104.66,243.29,162.95,391.03,164.68
			c2.19,0.03,4.39,0.08,6.58,0.08c0.03,0,0.05,0,0.08,0c0.03,0,0.05,0,0.08,0c150.26,0,291.52-58.51,397.76-164.76
			C1066.49,853.87,1125,712.61,1125,562.35C1125,412.1,1066.49,270.83,960.24,164.59z M236.58,913.19c-0.78-0.8-1.16-1.75-1.11-2.83
			c0.06-1.43,0.86-2.12,1.12-2.34c75.06-64.9,195.02-103.64,320.9-103.64c129.35,0,251.23,40.44,326.02,108.16
			c0.28,0.25,1.11,1.01,1.15,2.5c0.02,1.05-0.35,1.97-1.12,2.73c-85.88,85.56-199.92,132.68-321.14,132.7
			c-3.89,0-7.77-0.05-11.65-0.14C431.45,1047.38,320.27,998.95,236.58,913.19z M943.12,867.96c-2.88-3.79-6.1-7.35-9.66-10.58
			c-43.13-39.06-99.79-71.31-163.84-93.28c-66.06-22.65-137.43-34.14-212.13-34.14c-145.37,0-280.07,44.38-369.56,121.76
			c-3.82,3.31-7.28,6.97-10.35,10.91C110.65,777.22,74.36,672.57,74.36,562.35c0-130.38,50.77-252.96,142.97-345.15
			C309.52,125.01,432.1,74.23,562.48,74.23s252.96,50.77,345.15,142.97c92.19,92.19,142.97,214.77,142.97,345.15
			C1050.6,674.88,1012.75,781.58,943.12,867.96z"/>
		<path class="st1" d="M557.32,119.21c-160.27,0-290.65,130.39-290.65,290.65c0,160.27,130.39,290.65,290.65,290.65
			s290.65-130.38,290.65-290.65C847.97,249.6,717.58,119.21,557.32,119.21z M557.32,626.11c-119.24,0-216.25-97.01-216.25-216.25
			c0-119.24,97.01-216.25,216.25-216.25c119.24,0,216.25,97.01,216.25,216.25C773.56,529.1,676.55,626.11,557.32,626.11z"/>
	</g>
</g>
</svg>
